<svg width="150" height="150" viewBox="0 0 150 150" fill="none" xmlns="http://www.w3.org/2000/svg">
<circle cx="75" cy="75" r="75" fill="#D3D3D3"/>
<path d="M97.953 49.0635C97.868 48.5465 97.6748 48.0541 97.3862 47.6193C97.0977 47.1845 96.7205 46.8175 96.2803 46.543C95.84 46.2685 95.3468 46.093 94.8339 46.0281C94.3211 45.9633 93.8005 46.0108 93.3072 46.1673L67.9995 54.1887C67.2637 54.4216 66.6205 54.887 66.1639 55.5169C65.7073 56.1467 65.4612 56.9081 65.4615 57.6898V87.5025C63.8327 86.2637 61.839 85.6189 59.8036 85.6726C57.7682 85.7262 55.8103 86.4752 54.2471 87.7981C52.6839 89.121 51.607 90.9404 51.1908 92.9615C50.7747 94.9825 51.0437 97.0869 51.9542 98.9336C52.8648 100.78 54.3636 102.261 56.2078 103.136C58.0519 104.011 60.1335 104.229 62.1151 103.755C64.0967 103.28 65.8623 102.142 67.1259 100.523C68.3895 98.9036 69.0769 96.8994 69.0769 94.8347V68.6881L94.3846 60.6667V80.1703C92.7557 78.9315 90.7621 78.2867 88.7267 78.3404C86.6913 78.394 84.7334 79.143 83.1702 80.4659C81.607 81.7888 80.53 83.6082 80.1139 85.6293C79.6977 87.6503 79.9667 89.7547 80.8773 91.6014C81.7879 93.448 83.2867 94.9289 85.1308 95.8039C86.975 96.679 89.0565 96.897 91.0382 96.4226C93.0198 95.9483 94.7854 94.8093 96.049 93.1903C97.3125 91.5714 98 89.5672 98 87.5025V49.6684C98 49.4631 97.9819 49.2614 97.953 49.0635Z" fill="black"/>
</svg>
